<svg width="300" height="300" viewBox="0 0 300 300" fill="none" xmlns="http://www.w3.org/2000/svg">
  <rect x="30" y="30" width="240" height="240" rx="72" fill="url(#logo-gradient)"/>
  <g transform="translate(42 42) scale(9)">
    <path d="M12 21c0-4 0-6-1-9s-3-5-3-8c0-1.5 1-2 2-1.5s2 2 2 4" stroke="white" stroke-width="1.8" stroke-linecap="round"/>
    <path d="M12 12c1-2 3-3.5 5-4.5 1-.5 2 0 1.5 1s-2 2.5-3.5 3.5" stroke="white" stroke-width="1.8" stroke-linecap="round"/>
    <path d="M10 14c-1.5-1-3.5-1.5-5-1-.8.3-.5 1.2.3 1.5s3 .5 4.2-.5" stroke="white" stroke-width="1.8" stroke-linecap="round"/>
    <circle cx="8" cy="4" r="1" fill="white"/>
    <circle cx="17.5" cy="8" r="1" fill="white"/>
    <circle cx="5.5" cy="13.5" r="0.8" fill="white"/>
  </g>
  <defs>
    <linearGradient id="logo-gradient" x1="30" y1="30" x2="270" y2="270" gradientUnits="userSpaceOnUse">
      <stop stop-color="#FACC15"/>
      <stop offset="1" stop-color="#FDE047"/>
    </linearGradient>
  </defs>
</svg>