<svg xmlns="http://www.w3.org/2000/svg" viewBox="0 0 32 32" fill="none">
  <rect width="32" height="32" rx="8" fill="url(#grad)"/>
  <path d="M16 27c0-5.3 0-8-1.3-12S11 9.3 11 5.3c0-2 1.3-2.7 2.7-2s2.7 2.7 2.7 5.3" stroke="white" stroke-width="2" stroke-linecap="round"/>
  <path d="M16 16c1.3-2.7 4-4.7 6.7-6 1.3-.7 2.7 0 2 1.3s-2.7 3.3-4.7 4.7" stroke="white" stroke-width="2" stroke-linecap="round"/>
  <path d="M13.3 18.7c-2-1.3-4.7-2-6.7-1.3-1 .4-.7 1.6.4 2s4 .7 5.6-.7" stroke="white" stroke-width="2" stroke-linecap="round"/>
  <circle cx="10.7" cy="5.3" r="1.3" fill="white"/>
  <circle cx="23.3" cy="10.7" r="1.3" fill="white"/>
  <circle cx="7.3" cy="18" r="1" fill="white"/>
  <defs>
    <linearGradient id="grad" x1="0" y1="0" x2="32" y2="32">
      <stop offset="0%" stop-color="#facc15"/>
      <stop offset="100%" stop-color="#fbbf24"/>
    </linearGradient>
  </defs>
</svg>
